<?xml version="1.0" standalone="no"?><!DOCTYPE svg PUBLIC "-//W3C//DTD SVG 1.1//EN" "http://www.w3.org/Graphics/SVG/1.1/DTD/svg11.dtd"><svg t="1715128625649" class="icon" viewBox="0 0 1025 1024" version="1.1" xmlns="http://www.w3.org/2000/svg" p-id="1498" xmlns:xlink="http://www.w3.org/1999/xlink" width="200.1953125" height="200"><path d="M972.8 409.6c-30.72 0-51.2-20.48-51.2-51.2 0-143.36-112.64-256-256-256-30.72 0-51.2-20.48-51.2-51.2s20.48-51.2 51.2-51.2c199.68 0 358.4 158.72 358.4 358.4 0 30.72-20.48 51.2-51.2 51.2zM1008.64 721.92c-20.48-20.48-51.2-20.48-71.68 0l-179.2 179.2-107.52-107.52c-20.48-20.48-51.2-20.48-71.68 0-20.48 20.48-20.48 51.2 0 71.68l143.36 143.36s5.12 5.12 10.24 5.12 5.12 5.12 10.24 5.12h40.96c5.12 0 5.12-5.12 10.24-5.12s5.12-5.12 10.24-5.12l215.04-215.04c10.24-20.48 10.24-51.2-10.24-71.68z" fill="#4fc4e8" p-id="1499"></path><path d="M460.8 1024c-256 0-460.8-204.8-460.8-460.8s204.8-460.8 460.8-460.8 460.8 204.8 460.8 460.8c0 30.72-20.48 51.2-51.2 51.2s-51.2-20.48-51.2-51.2c0-199.68-158.72-358.4-358.4-358.4s-358.4 158.72-358.4 358.4 158.72 358.4 358.4 358.4c30.72 0 51.2 20.48 51.2 51.2s-20.48 51.2-51.2 51.2z" fill="#4fc4e8" p-id="1500"></path></svg>